<?xml version="1.0" encoding="UTF-8" standalone="no"?>
<!DOCTYPE svg PUBLIC "-//W3C//DTD SVG 1.1//EN" "http://www.w3.org/Graphics/SVG/1.1/DTD/svg11.dtd">
<svg width="100%" height="100%" viewBox="0 0 446 128" version="1.1" xmlns="http://www.w3.org/2000/svg" xmlns:xlink="http://www.w3.org/1999/xlink" xml:space="preserve" xmlns:serif="http://www.serif.com/" style="fill-rule:evenodd;clip-rule:evenodd;stroke-linejoin:round;stroke-miterlimit:2;">
    <g id="g866">
        <g id="path9" transform="matrix(1.13369,0,0,1.13369,-21.6779,-8.55647)">
            <path d="M72.506,67.073C70.709,67.098 72.846,67.999 75.192,68.36C75.84,67.854 76.428,67.342 76.952,66.844C75.491,67.202 74.004,67.21 72.506,67.073" style="fill:rgb(206,0,88);fill-rule:nonzero;"/>
        </g>
        <g id="path11" transform="matrix(1.13369,0,0,1.13369,-21.6779,-8.55647)">
            <path d="M82.151,64.668C83.221,63.192 84.001,61.574 84.276,59.902C84.036,61.094 83.389,62.123 82.78,63.21C79.421,65.325 82.464,61.954 82.778,60.673C79.166,65.219 82.282,63.399 82.151,64.668" style="fill:rgb(206,0,88);fill-rule:nonzero;"/>
        </g>
        <g id="path13" transform="matrix(1.13369,0,0,1.13369,-21.6779,-8.55647)">
            <path d="M85.711,55.405C85.928,52.169 85.074,53.192 84.787,54.426C85.122,54.6 85.387,56.707 85.711,55.405" style="fill:rgb(206,0,88);fill-rule:nonzero;"/>
        </g>
        <g id="path15" transform="matrix(1.13369,0,0,1.13369,-21.6779,-8.55647)">
            <path d="M65.692,11.175C66.651,11.347 67.764,11.479 67.608,11.708C68.657,11.477 68.895,11.266 65.692,11.175" style="fill:rgb(206,0,88);fill-rule:nonzero;"/>
        </g>
        <g id="path17" transform="matrix(1.13369,0,0,1.13369,-21.6779,-8.55647)">
            <path d="M67.608,11.708L66.93,11.848L67.561,11.792L67.608,11.708" style="fill:rgb(206,0,88);fill-rule:nonzero;"/>
        </g>
        <g id="path19" transform="matrix(1.13369,0,0,1.13369,-21.6779,-8.55647)">
            <path d="M97.512,56.632C97.619,59.538 96.662,60.948 95.799,63.444L94.246,64.219C92.975,66.688 94.369,65.786 93.459,67.75C91.475,69.513 87.438,73.269 86.146,73.613C85.203,73.592 86.785,72.5 86.992,72.072C84.336,73.896 84.861,74.81 80.799,75.918L80.68,75.654C70.662,80.367 56.746,71.027 56.929,58.283C56.822,59.092 56.625,58.89 56.403,59.217C55.886,52.66 59.431,46.074 65.41,43.385C71.258,40.49 78.114,41.678 82.303,45.582C80.002,42.568 75.422,39.373 69.994,39.672C64.677,39.756 59.703,43.135 58.043,46.803C55.319,48.518 55.003,53.414 53.816,54.31C52.219,66.047 56.82,71.118 64.603,77.083C65.828,77.909 64.948,78.034 65.114,78.663C62.528,77.452 60.16,75.624 58.213,73.386C59.246,74.898 60.361,76.368 61.802,77.523C59.364,76.697 56.107,71.615 55.156,71.408C59.359,78.933 72.208,84.605 78.936,81.791C75.823,81.906 71.868,81.855 68.37,80.562C66.901,79.806 64.903,78.24 65.26,77.947C74.442,81.377 83.927,80.545 91.872,74.176C93.893,72.602 96.101,69.924 96.739,69.887C95.778,71.332 96.903,70.582 96.165,71.858C98.179,68.61 95.29,70.536 98.247,66.249L99.339,67.753C98.933,65.057 102.687,61.783 102.306,57.519C103.167,56.215 103.267,58.922 102.353,61.922C103.621,58.594 102.687,58.059 103.013,55.313C103.365,56.236 103.827,57.217 104.064,58.191C103.238,54.975 104.912,52.775 105.326,50.906C104.918,50.725 104.051,52.328 103.853,48.529C103.882,46.879 104.312,47.664 104.478,47.258C104.154,47.072 103.304,45.807 102.787,43.381C103.162,42.811 103.789,44.859 104.299,44.943C103.971,43.014 103.406,41.543 103.383,40.063C101.893,36.949 102.856,40.478 101.647,38.726C100.061,33.779 102.963,37.578 103.159,35.33C105.563,38.813 106.934,44.211 107.563,46.447C107.083,43.721 106.307,41.08 105.36,38.525C106.09,38.832 104.184,32.916 106.309,36.834C104.039,28.482 96.594,20.678 89.745,17.016C90.583,17.783 91.641,18.746 91.261,18.897C87.855,16.869 88.454,16.711 87.966,15.854C85.191,14.725 85.009,15.945 83.171,15.856C77.941,13.082 76.933,13.377 72.12,11.639L72.339,12.662C68.874,11.508 68.302,13.1 64.557,12.666C64.329,12.487 65.757,12.022 66.932,11.851C63.582,12.293 63.739,11.191 60.461,11.973C61.269,11.406 62.123,11.031 62.985,10.549C60.253,10.715 56.463,12.139 57.633,10.844C53.177,12.832 45.263,15.623 40.822,19.787L40.682,18.854C38.647,21.297 31.808,26.15 31.263,29.314L30.719,29.441C29.66,31.234 28.975,33.266 28.135,35.111C26.75,37.471 26.105,36.019 26.302,36.389C23.578,41.912 22.225,46.553 21.056,50.359C21.889,51.603 21.076,57.853 21.391,62.856C20.023,87.56 38.729,111.546 59.176,117.084C62.173,118.156 66.63,118.115 70.421,118.225C65.948,116.946 65.37,117.547 61.013,116.028C57.87,114.548 57.181,112.858 54.955,110.926L55.836,112.483C51.47,110.938 53.297,110.571 49.745,109.446L50.686,108.217C49.271,108.11 46.938,105.831 46.3,104.571L44.752,104.632C42.892,102.337 41.901,100.683 41.973,99.402L41.473,100.293C40.906,99.32 34.63,91.686 37.886,93.463C37.281,92.91 36.477,92.563 35.605,90.979L36.268,90.221C34.701,88.205 33.384,85.621 33.484,84.76C34.32,85.889 34.9,86.1 35.474,86.293C31.517,76.475 31.295,85.752 28.298,76.299L28.932,76.248C28.446,75.516 28.151,74.721 27.76,73.941L28.036,71.191C25.187,67.897 27.239,57.185 27.65,51.31C27.935,48.921 30.028,46.378 31.62,42.39L30.65,42.223C32.504,38.989 41.236,29.235 45.28,29.737C47.239,27.276 44.891,29.728 44.508,29.108C48.811,24.655 50.164,25.962 53.068,25.161C56.2,23.302 50.38,25.886 51.865,24.452C57.279,23.069 55.702,21.308 62.765,20.606C63.51,21.03 61.036,21.261 60.415,21.811C64.926,19.604 74.69,20.106 81.032,23.036C88.391,26.475 96.659,36.641 96.985,46.206L97.356,46.306C97.168,50.108 97.938,54.505 96.604,58.544L97.512,56.632" style="fill:rgb(206,0,88);fill-rule:nonzero;"/>
        </g>
        <g id="path21" transform="matrix(1.13369,0,0,1.13369,-21.6779,-8.55647)">
            <path d="M52.892,69.54L52.64,70.8C53.821,72.404 54.758,74.142 56.266,75.396C55.181,73.278 54.375,72.403 52.892,69.54" style="fill:rgb(206,0,88);fill-rule:nonzero;"/>
        </g>
        <g id="path23" transform="matrix(1.13369,0,0,1.13369,-21.6779,-8.55647)">
            <path d="M55.684,69.43C55.059,68.739 54.689,67.907 54.275,67.078C54.671,68.535 55.482,69.787 56.237,71.06L55.684,69.43" style="fill:rgb(206,0,88);fill-rule:nonzero;"/>
        </g>
        <g id="path25" transform="matrix(1.13369,0,0,1.13369,-21.6779,-8.55647)">
            <path d="M105.088,58.692L104.824,59.353C104.34,62.792 103.295,66.194 101.693,69.348C103.463,66.019 104.608,62.379 105.088,58.692" style="fill:rgb(206,0,88);fill-rule:nonzero;"/>
        </g>
        <g id="path27" transform="matrix(1.13369,0,0,1.13369,-21.6779,-8.55647)">
            <path d="M66.047,10.313C67.262,9.868 69.034,10.069 70.323,9.775C68.643,9.916 66.971,10 65.32,10.214L66.047,10.313" style="fill:rgb(206,0,88);fill-rule:nonzero;"/>
        </g>
        <g id="path29" transform="matrix(1.13369,0,0,1.13369,-21.6779,-8.55647)">
            <path d="M23.392,32.995C23.672,35.587 21.442,36.593 23.886,34.884C25.196,31.933 23.374,34.069 23.392,32.995" style="fill:rgb(206,0,88);fill-rule:nonzero;"/>
        </g>
        <g id="path31" transform="matrix(1.13369,0,0,1.13369,-21.6779,-8.55647)">
            <path d="M20.52,44.99C21.083,43.262 21.185,42.225 21.4,41.225C19.844,43.213 20.684,43.637 20.52,44.99" style="fill:rgb(206,0,88);fill-rule:nonzero;"/>
        </g>
    </g>
    <g transform="matrix(1.13369,0,0,1.13369,-35.7944,1.965)">
        <g id="Layer1">
            <g>
                <g transform="matrix(1,0,0,1,7.89576,-7.4947)">
                    <path d="M155.68,100.211C151.135,100.211 147.122,99.057 143.642,96.749C140.162,94.441 137.439,91.174 135.474,86.948C133.509,82.722 132.527,77.721 132.527,71.944C132.527,66.215 133.509,61.243 135.474,57.029C137.439,52.815 140.174,49.56 143.677,47.264C147.181,44.967 151.229,43.819 155.822,43.819C159.373,43.819 162.185,44.405 164.256,45.577C166.328,46.749 167.914,48.075 169.015,49.554C170.116,51.034 170.974,52.247 171.589,53.194L172.299,53.194L172.299,26.348L180.68,26.348L180.68,99.075L172.584,99.075L172.584,90.694L171.589,90.694C170.974,91.688 170.098,92.937 168.961,94.441C167.825,95.944 166.203,97.281 164.096,98.453C161.989,99.625 159.184,100.211 155.68,100.211ZM156.817,92.683C161.859,92.683 165.724,90.747 168.411,86.877C171.098,83.006 172.442,77.981 172.442,71.802C172.442,65.694 171.116,60.758 168.464,56.994C165.813,53.23 161.93,51.348 156.817,51.348C153.265,51.348 150.312,52.253 147.956,54.064C145.601,55.875 143.837,58.326 142.665,61.415C141.493,64.504 140.907,67.967 140.907,71.802C140.907,75.685 141.505,79.206 142.701,82.367C143.896,85.527 145.672,88.037 148.027,89.895C150.383,91.754 153.313,92.683 156.817,92.683Z" style="fill:white;fill-rule:nonzero;"/>
                </g>
                <g transform="matrix(1,0,0,1,7.89576,-7.4947)">
                    <path d="M215.027,100.211C209.771,100.211 205.243,99.045 201.444,96.713C197.644,94.381 194.72,91.114 192.672,86.912C190.625,82.71 189.601,77.815 189.601,72.228C189.601,66.641 190.625,61.711 192.672,57.438C194.72,53.165 197.585,49.826 201.266,47.424C204.947,45.021 209.25,43.819 214.174,43.819C217.015,43.819 219.821,44.293 222.591,45.24C225.361,46.187 227.882,47.719 230.155,49.838C232.427,51.957 234.238,54.757 235.588,58.237C236.937,61.717 237.612,66.002 237.612,71.092L237.612,74.643L198.017,74.643C198.206,80.467 199.857,84.929 202.971,88.031C206.084,91.132 210.103,92.683 215.027,92.683C218.317,92.683 221.147,91.973 223.514,90.552C225.881,89.132 227.598,87.001 228.663,84.16L236.76,86.433C235.481,90.552 232.924,93.878 229.089,96.411C225.254,98.945 220.567,100.211 215.027,100.211ZM198.017,67.399L229.089,67.399C229.089,62.782 227.74,58.953 225.041,55.911C222.342,52.869 218.72,51.348 214.174,51.348C210.978,51.348 208.209,52.093 205.865,53.585C203.521,55.076 201.674,57.047 200.325,59.497C198.976,61.948 198.206,64.581 198.017,67.399Z" style="fill:white;fill-rule:nonzero;"/>
                </g>
                <g transform="matrix(1,0,0,1,7.89576,-7.4947)">
                    <path d="M246.532,99.075L246.532,26.348L254.913,26.348L254.913,53.194L255.623,53.194C256.239,52.247 257.097,51.034 258.198,49.554C259.299,48.075 260.885,46.749 262.956,45.577C265.028,44.405 267.839,43.819 271.39,43.819C275.983,43.819 280.031,44.967 283.535,47.264C287.039,49.56 289.773,52.815 291.738,57.029C293.703,61.243 294.686,66.215 294.686,71.944C294.686,77.721 293.703,82.722 291.738,86.948C289.773,91.174 287.051,94.441 283.571,96.749C280.091,99.057 276.078,100.211 271.532,100.211C268.029,100.211 265.223,99.625 263.116,98.453C261.009,97.281 259.388,95.944 258.251,94.441C257.115,92.937 256.239,91.688 255.623,90.694L254.629,90.694L254.629,99.075L246.532,99.075ZM254.771,71.802C254.771,77.981 256.115,83.006 258.802,86.877C261.489,90.747 265.353,92.683 270.396,92.683C273.9,92.683 276.83,91.754 279.185,89.895C281.541,88.037 283.316,85.527 284.512,82.367C285.707,79.206 286.305,75.685 286.305,71.802C286.305,67.967 285.719,64.504 284.547,61.415C283.375,58.326 281.612,55.875 279.256,54.064C276.901,52.253 273.947,51.348 270.396,51.348C265.282,51.348 261.4,53.23 258.748,56.994C256.097,60.758 254.771,65.694 254.771,71.802Z" style="fill:white;fill-rule:nonzero;"/>
                </g>
                <g transform="matrix(1,0,0,1,7.89576,-7.4947)">
                    <path d="M302.47,99.075L302.47,44.529L310.851,44.529L310.851,99.075L302.47,99.075ZM306.731,35.438C305.098,35.438 303.695,34.882 302.523,33.769C301.351,32.657 300.765,31.319 300.765,29.757C300.765,28.194 301.351,26.857 302.523,25.744C303.695,24.631 305.098,24.075 306.731,24.075C308.365,24.075 309.768,24.631 310.939,25.744C312.111,26.857 312.697,28.194 312.697,29.757C312.697,31.319 312.111,32.657 310.939,33.769C309.768,34.882 308.365,35.438 306.731,35.438Z" style="fill:white;fill-rule:nonzero;"/>
                </g>
                <g transform="matrix(1,0,0,1,7.89576,-7.4947)">
                    <path d="M337.243,100.353C333.786,100.353 330.649,99.696 327.832,98.382C325.015,97.068 322.778,95.163 321.121,92.665C319.463,90.167 318.635,87.143 318.635,83.592C318.635,80.467 319.25,77.928 320.481,75.975C321.712,74.022 323.358,72.489 325.417,71.376C327.477,70.263 329.756,69.429 332.253,68.872C334.751,68.316 337.266,67.872 339.799,67.541C343.114,67.115 345.807,66.789 347.878,66.564C349.95,66.339 351.465,65.955 352.424,65.41C353.383,64.866 353.862,63.919 353.862,62.569L353.862,62.285C353.862,58.781 352.909,56.059 351.003,54.117C349.098,52.176 346.215,51.205 342.356,51.205C338.355,51.205 335.219,52.081 332.946,53.833C330.673,55.585 329.075,57.455 328.152,59.444L320.197,56.603C321.618,53.289 323.518,50.702 325.897,48.844C328.276,46.986 330.88,45.683 333.709,44.938C336.538,44.192 339.326,43.819 342.072,43.819C343.824,43.819 345.842,44.026 348.127,44.441C350.411,44.855 352.625,45.701 354.768,46.98C356.91,48.258 358.692,50.188 360.112,52.768C361.532,55.348 362.243,58.805 362.243,63.137L362.243,99.075L353.862,99.075L353.862,91.688L353.436,91.688C352.868,92.872 351.921,94.139 350.595,95.488C349.269,96.838 347.505,97.986 345.304,98.933C343.102,99.88 340.415,100.353 337.243,100.353ZM338.521,92.825C341.835,92.825 344.635,92.174 346.92,90.872C349.204,89.57 350.932,87.889 352.104,85.829C353.276,83.769 353.862,81.603 353.862,79.33L353.862,71.66C353.507,72.086 352.732,72.471 351.536,72.814C350.34,73.157 348.967,73.453 347.417,73.702C345.866,73.951 344.363,74.164 342.907,74.341C341.451,74.519 340.273,74.667 339.373,74.785C337.195,75.069 335.165,75.525 333.283,76.152C331.401,76.78 329.886,77.715 328.738,78.958C327.589,80.201 327.015,81.887 327.015,84.018C327.015,86.93 328.098,89.126 330.265,90.605C332.431,92.085 335.183,92.825 338.521,92.825Z" style="fill:white;fill-rule:nonzero;"/>
                </g>
                <g transform="matrix(1,0,0,1,7.89576,-7.4947)">
                    <path d="M380.964,66.262L380.964,99.075L372.584,99.075L372.584,44.529L380.68,44.529L380.68,53.052L381.39,53.052C382.669,50.282 384.61,48.051 387.214,46.358C389.818,44.665 393.18,43.819 397.299,43.819C402.816,43.819 407.272,45.512 410.67,48.897C414.067,52.283 415.765,57.455 415.765,64.416L415.765,99.075L407.385,99.075L407.385,64.984C407.385,60.699 406.272,57.355 404.047,54.952C401.821,52.549 398.767,51.348 394.885,51.348C390.884,51.348 387.563,52.644 384.924,55.236C382.284,57.828 380.964,61.504 380.964,66.262Z" style="fill:white;fill-rule:nonzero;"/>
                </g>
            </g>
        </g>
    </g>
</svg>
