<?xml version="1.0" encoding="UTF-8" standalone="no"?>
<!DOCTYPE svg PUBLIC "-//W3C//DTD SVG 1.1//EN" "http://www.w3.org/Graphics/SVG/1.1/DTD/svg11.dtd">
<svg width="100%" height="100%" viewBox="0 0 128 128" version="1.1" xmlns="http://www.w3.org/2000/svg" xmlns:xlink="http://www.w3.org/1999/xlink" xml:space="preserve" xmlns:serif="http://www.serif.com/" style="fill-rule:evenodd;clip-rule:evenodd;stroke-linejoin:round;stroke-miterlimit:2;">
    <g transform="matrix(1.11623,0,0,1.11623,-7.43847,-7.43847)">
        <g id="g866">
            <path id="path9" d="M72.506,67.073C70.709,67.098 72.846,67.999 75.192,68.36C75.84,67.854 76.428,67.342 76.952,66.844C75.491,67.202 74.004,67.21 72.506,67.073" style="fill:rgb(206,0,88);fill-rule:nonzero;"/>
            <path id="path11" d="M82.151,64.668C83.221,63.192 84.001,61.574 84.276,59.902C84.036,61.094 83.389,62.123 82.78,63.21C79.421,65.325 82.464,61.954 82.778,60.673C79.166,65.219 82.282,63.399 82.151,64.668" style="fill:rgb(206,0,88);fill-rule:nonzero;"/>
            <path id="path13" d="M85.711,55.405C85.928,52.169 85.074,53.192 84.787,54.426C85.122,54.6 85.387,56.707 85.711,55.405" style="fill:rgb(206,0,88);fill-rule:nonzero;"/>
            <path id="path15" d="M65.692,11.175C66.651,11.347 67.764,11.479 67.608,11.708C68.657,11.477 68.895,11.266 65.692,11.175" style="fill:rgb(206,0,88);fill-rule:nonzero;"/>
            <path id="path17" d="M67.608,11.708L66.93,11.848L67.561,11.792L67.608,11.708" style="fill:rgb(206,0,88);fill-rule:nonzero;"/>
            <path id="path19" d="M97.512,56.632C97.619,59.538 96.662,60.948 95.799,63.444L94.246,64.219C92.975,66.688 94.369,65.786 93.459,67.75C91.475,69.513 87.438,73.269 86.146,73.613C85.203,73.592 86.785,72.5 86.992,72.072C84.336,73.896 84.861,74.81 80.799,75.918L80.68,75.654C70.662,80.367 56.746,71.027 56.929,58.283C56.822,59.092 56.625,58.89 56.403,59.217C55.886,52.66 59.431,46.074 65.41,43.385C71.258,40.49 78.114,41.678 82.303,45.582C80.002,42.568 75.422,39.373 69.994,39.672C64.677,39.756 59.703,43.135 58.043,46.803C55.319,48.518 55.003,53.414 53.816,54.31C52.219,66.047 56.82,71.118 64.603,77.083C65.828,77.909 64.948,78.034 65.114,78.663C62.528,77.452 60.16,75.624 58.213,73.386C59.246,74.898 60.361,76.368 61.802,77.523C59.364,76.697 56.107,71.615 55.156,71.408C59.359,78.933 72.208,84.605 78.936,81.791C75.823,81.906 71.868,81.855 68.37,80.562C66.901,79.806 64.903,78.24 65.26,77.947C74.442,81.377 83.927,80.545 91.872,74.176C93.893,72.602 96.101,69.924 96.739,69.887C95.778,71.332 96.903,70.582 96.165,71.858C98.179,68.61 95.29,70.536 98.247,66.249L99.339,67.753C98.933,65.057 102.687,61.783 102.306,57.519C103.167,56.215 103.267,58.922 102.353,61.922C103.621,58.594 102.687,58.059 103.013,55.313C103.365,56.236 103.827,57.217 104.064,58.191C103.238,54.975 104.912,52.775 105.326,50.906C104.918,50.725 104.051,52.328 103.853,48.529C103.882,46.879 104.312,47.664 104.478,47.258C104.154,47.072 103.304,45.807 102.787,43.381C103.162,42.811 103.789,44.859 104.299,44.943C103.971,43.014 103.406,41.543 103.383,40.063C101.893,36.949 102.856,40.478 101.647,38.726C100.061,33.779 102.963,37.578 103.159,35.33C105.563,38.813 106.934,44.211 107.563,46.447C107.083,43.721 106.307,41.08 105.36,38.525C106.09,38.832 104.184,32.916 106.309,36.834C104.039,28.482 96.594,20.678 89.745,17.016C90.583,17.783 91.641,18.746 91.261,18.897C87.855,16.869 88.454,16.711 87.966,15.854C85.191,14.725 85.009,15.945 83.171,15.856C77.941,13.082 76.933,13.377 72.12,11.639L72.339,12.662C68.874,11.508 68.302,13.1 64.557,12.666C64.329,12.487 65.757,12.022 66.932,11.851C63.582,12.293 63.739,11.191 60.461,11.973C61.269,11.406 62.123,11.031 62.985,10.549C60.253,10.715 56.463,12.139 57.633,10.844C53.177,12.832 45.263,15.623 40.822,19.787L40.682,18.854C38.647,21.297 31.808,26.15 31.263,29.314L30.719,29.441C29.66,31.234 28.975,33.266 28.135,35.111C26.75,37.471 26.105,36.019 26.302,36.389C23.578,41.912 22.225,46.553 21.056,50.359C21.889,51.603 21.076,57.853 21.391,62.856C20.023,87.56 38.729,111.546 59.176,117.084C62.173,118.156 66.63,118.115 70.421,118.225C65.948,116.946 65.37,117.547 61.013,116.028C57.87,114.548 57.181,112.858 54.955,110.926L55.836,112.483C51.47,110.938 53.297,110.571 49.745,109.446L50.686,108.217C49.271,108.11 46.938,105.831 46.3,104.571L44.752,104.632C42.892,102.337 41.901,100.683 41.973,99.402L41.473,100.293C40.906,99.32 34.63,91.686 37.886,93.463C37.281,92.91 36.477,92.563 35.605,90.979L36.268,90.221C34.701,88.205 33.384,85.621 33.484,84.76C34.32,85.889 34.9,86.1 35.474,86.293C31.517,76.475 31.295,85.752 28.298,76.299L28.932,76.248C28.446,75.516 28.151,74.721 27.76,73.941L28.036,71.191C25.187,67.897 27.239,57.185 27.65,51.31C27.935,48.921 30.028,46.378 31.62,42.39L30.65,42.223C32.504,38.989 41.236,29.235 45.28,29.737C47.239,27.276 44.891,29.728 44.508,29.108C48.811,24.655 50.164,25.962 53.068,25.161C56.2,23.302 50.38,25.886 51.865,24.452C57.279,23.069 55.702,21.308 62.765,20.606C63.51,21.03 61.036,21.261 60.415,21.811C64.926,19.604 74.69,20.106 81.032,23.036C88.391,26.475 96.659,36.641 96.985,46.206L97.356,46.306C97.168,50.108 97.938,54.505 96.604,58.544L97.512,56.632" style="fill:rgb(206,0,88);fill-rule:nonzero;"/>
            <path id="path21" d="M52.892,69.54L52.64,70.8C53.821,72.404 54.758,74.142 56.266,75.396C55.181,73.278 54.375,72.403 52.892,69.54" style="fill:rgb(206,0,88);fill-rule:nonzero;"/>
            <path id="path23" d="M55.684,69.43C55.059,68.739 54.689,67.907 54.275,67.078C54.671,68.535 55.482,69.787 56.237,71.06L55.684,69.43" style="fill:rgb(206,0,88);fill-rule:nonzero;"/>
            <path id="path25" d="M105.088,58.692L104.824,59.353C104.34,62.792 103.295,66.194 101.693,69.348C103.463,66.019 104.608,62.379 105.088,58.692" style="fill:rgb(206,0,88);fill-rule:nonzero;"/>
            <path id="path27" d="M66.047,10.313C67.262,9.868 69.034,10.069 70.323,9.775C68.643,9.916 66.971,10 65.32,10.214L66.047,10.313" style="fill:rgb(206,0,88);fill-rule:nonzero;"/>
            <path id="path29" d="M23.392,32.995C23.672,35.587 21.442,36.593 23.886,34.884C25.196,31.933 23.374,34.069 23.392,32.995" style="fill:rgb(206,0,88);fill-rule:nonzero;"/>
            <path id="path31" d="M20.52,44.99C21.083,43.262 21.185,42.225 21.4,41.225C19.844,43.213 20.684,43.637 20.52,44.99" style="fill:rgb(206,0,88);fill-rule:nonzero;"/>
        </g>
    </g>
</svg>
