/* XPM */
static char * term_32x32_xpm[] = {
"32 32 71 1",
" 	c None",
".	c #121212",
"+	c #1e1e1e",
"@	c #252525",
"#	c #3F3F3F",
"$	c #141414",
"%	c #4F4F4F",
"&	c #4E5A4E",
"*	c #40A543",
"=	c #4F524F",
"-	c #488449",
";	c #3BB43F",
">	c #4F514F",
",	c #4C684D",
"'	c #38BC3D",
")	c #33C839",
"!	c #38BB3D",
"~	c #39BB3D",
"{	c #439846",
"]	c #3EAD41",
"^	c #439945",
"/	c #3AB73E",
"(	c #4B714C",
"_	c #3EAA41",
":	c #3DAD41",
"<	c #4B6D4C",
"[	c #4A764B",
"}	c #40A443",
"|	c #497B4A",
"1	c #459047",
"2	c #4D604D",
"3	c #4C6A4C",
"4	c #3CB140",
"5	c #3BB33F",
"6	c #4C674D",
"7	c #3AB83E",
"8	c #36C23B",
"9	c #4B6E4C",
"0	c #4F504F",
"a	c #478649",
"b	c #34C53A",
"c	c #497D4A",
"d	c #3FA742",
"e	c #33C739",
"f	c #41A243",
"g	c #478749",
"h	c #439B45",
"i	c #4D644D",
"j	c #419F44",
"k	c #478948",
"l	c #41A144",
"m	c #4B6F4C",
"n	c #34C63A",
"o	c #35C33B",
"p	c #468C48",
"q	c #449746",
"r	c #34C639",
"s	c #37BE3C",
"t	c #4E584E",
"u	c #35C43A",
"v	c #38BD3C",
"w	c #4E5B4E",
"x	c #478848",
"y	c #488549",
"z	c #4F534F",
"A	c #4B744B",
"B	c #4A754B",
"C	c #4C694D",
"D	c #478149",
"E	c #478349",
"F	c #4A724B",
"                                ",
"   #@@@@@@@@@@@@@@@@@@@@@@@@#   ",
"  ++%%%%%%%%%%%%%%%%%%%%%%%%++  ",
"  +%%%%%%%%%%%%%%%%%%%%%%%%%%+  ",
" +%%%%%%%%%%%%%%%%%%%%%%%%%%%%+ ",
" +%%%%%%%&&%%%%%%%%%%%%%%%%%%%+ ",
" +%%%%%%%**%%%%%%%%%%%%%%%%%%%+ ",
" +%%%%%%%**%%%%%%%%%%%%%%%%%%%+ ",
" +%%%%%=-;;->%%%%%%%%%%%%%%%%%+ ",
" +%%%%,'))))!,%%%%%%%%%%%%%%%%+ ",
" +%%%%~){]]^)/%%%%%%%%%%%%%%%%+ ",
" +%%%()_%**%:)<%%%%%%%%%%%%%%%+ ",
" +%%%[)}%**%|12%%%%%%%%%%%%%%%+ ",
" +%%%3)~=**%%%%%%%%%%%%%%%%%%%+ ",
" +%%%%4)45*%%%%%%%%%%%%%%%%%%%+ ",
" +%%%%67))8*9%%%%%%%%%%%%%%%%%+ ",
" +%%%%%0a~))bc%%%%%%%%%%%%%%%%+ ",
" +%%%%%%%*d1e8&%%%%%%%%%%%%%%%+ ",
" +%%%%%%%**%f)g%%%%%%%%%%%%%%%+ ",
" +%%%-hi%**%1)1%%%%%%%%%%%%%%%+ ",
" +%%%j)k%**%l)a%%%%%%%%%%%%%%%+ ",
" +%%%mnop]]qrst%%%%%%%%%%%%%%%+ ",
" +%%%%ku))))v(%%%%%%%%%%%%%%%%+ ",
" +%%%%%wx;;yz%%%%ABBBBBBBBC%%%+ ",
" +%%%%%%%**%%%%%%b))))))))d%%%+ ",
" +%%%%%%%**%%%%%%DEEEEEEEEF%%%+ ",
" +%%%%%%%&&%%%%%%%%%%%%%%%%%%%+ ",
" +%%%%%%%%%%%%%%%%%%%%%%%%%%%%+ ",
"  +%%%%%%%%%%%%%%%%%%%%%%%%%%+  ",
"  ++%%%%%%%%%%%%%%%%%%%%%%%%++  ",
"   #@@@@@@@@@@@@@@@@@@@@@@@#    ",
"                                "};
