/* XPM */
static char * term_48_xpm[] = {
"48 48 80 1",
" 	c None",
".	c #121212",
"+	c #303030",
"@	c #3A3A3A",
"#	c #3B3B3B",
"$	c #454545",
"%	c #4F4F4F",
"&	c #4A754B",
"*	c #4B704C",
"=	c #34C639",
"-	c #39BA3D",
";	c #4C674D",
">	c #33C739",
",	c #38BD3C",
"'	c #4C6A4C",
")	c #4E544F",
"!	c #449546",
"~	c #37BF3C",
"{	c #33C839",
"]	c #449446",
"^	c #4F514F",
"/	c #4E584E",
"(	c #3BB43F",
"_	c #3BB33F",
":	c #4E574E",
"<	c #40A643",
"[	c #3AB83E",
"}	c #478748",
"|	c #468B48",
"1	c #39BB3D",
"2	c #41A044",
"3	c #4D634D",
"4	c #4E594E",
"5	c #38BD3D",
"6	c #34C63A",
"7	c #4E5C4E",
"8	c #478948",
"9	c #468D47",
"0	c #449646",
"a	c #488149",
"b	c #459047",
"c	c #487F4A",
"d	c #4A764B",
"e	c #40A543",
"f	c #497B4A",
"g	c #468D48",
"h	c #4C6B4C",
"i	c #38BC3D",
"j	c #3BB53F",
"k	c #4B6D4C",
"l	c #35C53A",
"m	c #4C694C",
"n	c #478848",
"o	c #459147",
"p	c #3FA742",
"q	c #4F504F",
"r	c #36C13B",
"s	c #3CAF40",
"t	c #429D44",
"u	c #497E4A",
"v	c #34C53A",
"w	c #4D654D",
"x	c #37BE3C",
"y	c #497A4A",
"z	c #419F44",
"A	c #4F534F",
"B	c #3CB140",
"C	c #497D4A",
"D	c #3EAC41",
"E	c #488449",
"F	c #468948",
"G	c #39B83E",
"H	c #497C4A",
"I	c #4D614D",
"J	c #3FA642",
"K	c #35C33A",
"L	c #449746",
"M	c #4C664D",
"N	c #487F49",
"O	c #458F47",
"                                                ",
"                                                ",
"     ......................................     ",
"   ..+@##################################@+..   ",
"   .$%%%%%%%%%%%%%%%%%%%%%%%%%%%%%%%%%%%%%%$.   ",
"  .+%%%%%%%%%%%%%%%%%%%%%%%%%%%%%%%%%%%%%%%%+.  ",
"  .@%%%%%%%%%%%%%%%%%%%%%%%%%%%%%%%%%%%%%%%%@.  ",
"  .#%%%%%%%%%%%%%%%%%%%%%%%%%%%%%%%%%%%%%%%%#.  ",
"  .#%%%%%%%%%%&*%%%%%%%%%%%%%%%%%%%%%%%%%%%%#.  ",
"  .#%%%%%%%%%%=-%%%%%%%%%%%%%%%%%%%%%%%%%%%%#.  ",
"  .#%%%%%%%%%%=-%%%%%%%%%%%%%%%%%%%%%%%%%%%%#.  ",
"  .#%%%%%%%%%%=-%%%%%%%%%%%%%%%%%%%%%%%%%%%%#.  ",
"  .#%%%%%%%%%;>,'%%%%%%%%%%%%%%%%%%%%%%%%%%%#.  ",
"  .#%%%%%%)!~{{{{~]^%%%%%%%%%%%%%%%%%%%%%%%%#.  ",
"  .#%%%%%/({{{{{{{{_:%%%%%%%%%%%%%%%%%%%%%%%#.  ",
"  .#%%%%%<{{[}>,|1{{2%%%%%%%%%%%%%%%%%%%%%%%#.  ",
"  .#%%%%3>{[:%=-%45{67%%%%%%%%%%%%%%%%%%%%%%#.  ",
"  .#%%%%8{{9%%=-%%0{{a%%%%%%%%%%%%%%%%%%%%%%#.  ",
"  .#%%%%b{{c%%=-%%deef%%%%%%%%%%%%%%%%%%%%%%#.  ",
"  .#%%%%g{{0%%=-%%%%%%%%%%%%%%%%%%%%%%%%%%%%#.  ",
"  .#%%%%h{{i/%=-%%%%%%%%%%%%%%%%%%%%%%%%%%%%#.  ",
"  .#%%%%%_{{jk=-%%%%%%%%%%%%%%%%%%%%%%%%%%%%#.  ",
"  .#%%%%%kl{{{{~m%%%%%%%%%%%%%%%%%%%%%%%%%%%#.  ",
"  .#%%%%%%d,{{{{{[n%%%%%%%%%%%%%%%%%%%%%%%%%#.  ",
"  .#%%%%%%%:o_{{{{{pq%%%%%%%%%%%%%%%%%%%%%%%#.  ",
"  .#%%%%%%%%%%=rs{{{t%%%%%%%%%%%%%%%%%%%%%%%#.  ",
"  .#%%%%%%%%%%=-%uv{>w%%%%%%%%%%%%%%%%%%%%%%#.  ",
"  .#%%%%%%%%%%=-%%0{{!%%%%%%%%%%%%%%%%%%%%%%#.  ",
"  .#%%%%%%%%%%=-%%;{{e%%%%%%%%%%%%%%%%%%%%%%#.  ",
"  .#%%%%[[2%%%=-%%^{{e%%%%%%%%%%%%%%%%%%%%%%#.  ",
"  .#%%%%~{x%%%=-%%y{{z%%%%%%%%%%%%%%%%%%%%%%#.  ",
"  .#%%%%e{{!%%=-%AB{{C%%%%%%%%%%%%%%%%%%%%%%#.  ",
"  .#%%%%'v{{DE>,FG{{B%%%%%%%%%%%%%%%%%%%%%%%#.  ",
"  .#%%%%%Hv{{{{{{{{[I%%%%%%%%%%%%%%%%%%%%%%%#.  ",
"  .#%%%%%%mJK{{{{~L/%%%%%%%%%%%%%%%%%%%%%%%%#.  ",
"  .#%%%%%%%%%*>,'%%%%%%%%MNNNNNNNNNNNNNN%%%%#.  ",
"  .#%%%%%%%%%%=-%%%%%%%%%b{{{{{{{{{{{{{{%%%%#.  ",
"  .#%%%%%%%%%%=-%%%%%%%%%O>>>>>>>>>>>>>>%%%%#.  ",
"  .#%%%%%%%%%%=-%%%%%%%%%%%%%%%%%%%%%%%%%%%%#.  ",
"  .#%%%%%%%%%%&*%%%%%%%%%%%%%%%%%%%%%%%%%%%%#.  ",
"  .#%%%%%%%%%%%%%%%%%%%%%%%%%%%%%%%%%%%%%%%%#.  ",
"  .@%%%%%%%%%%%%%%%%%%%%%%%%%%%%%%%%%%%%%%%%@.  ",
"  .+%%%%%%%%%%%%%%%%%%%%%%%%%%%%%%%%%%%%%%%%+.  ",
"   .$%%%%%%%%%%%%%%%%%%%%%%%%%%%%%%%%%%%%%%$.   ",
"   ..+@##################################@+..   ",
"     ......................................     ",
"                                                ",
"                                                "};
