/* XPM */
static char * xterm_mod_32x32_xpm[] = {
"32 32 66 1",
" 	c None",
".	c #6F6F6F",
"+	c #646464",
"@	c #525252",
"#	c #4F4F4F",
"$	c #549456",
"%	c #516B51",
"&	c #51AB54",
"*	c #39C93F",
"=	c #46C24A",
"-	c #517052",
";	c #39B93E",
">	c #33C839",
",	c #46C64A",
"'	c #527E53",
")	c #495849",
"!	c #36B33A",
"~	c #46C94B",
"{	c #528054",
"]	c #495449",
"^	c #36B33B",
"/	c #43C848",
"(	c #517F53",
"_	c #4A544A",
":	c #37B33B",
"<	c #3FC744",
"[	c #507C52",
"}	c #4E524E",
"|	c #317C3E",
"1	c #2EB537",
"2	c #33C539",
"3	c #457646",
"4	c #327C40",
"5	c #24873B",
"6	c #238339",
"7	c #2AA235",
"8	c #3B743C",
"9	c #4E4E4E",
"0	c #4D544E",
"a	c #327D40",
"b	c #25853B",
"c	c #3F5A43",
"d	c #549557",
"e	c #56A359",
"f	c #56A258",
"g	c #516C51",
"h	c #2E7F3F",
"i	c #26833B",
"j	c #425B45",
"k	c #3AC93F",
"l	c #479B49",
"m	c #32723E",
"n	c #28813B",
"o	c #435445",
"p	c #439A45",
"q	c #4C4C4C",
"r	c #396440",
"s	c #445246",
"t	c #3D8B3F",
"u	c #39983C",
"v	c #39973C",
"w	c #486649",
"x	c #464646",
"y	c #2E2E2E",
"z	c #3A3A3A",
"A	c #3E3E3E",
"                                ",
"                                ",
"                                ",
"   ++++++++++++++++++++++++++   ",
"  +@########################@+  ",
"  @##########################@  ",
"  ####$%######################  ",
"  ###&*=-#####################  ",
"  ###;>>,'####################  ",
"  ###)!>>~{###################  ",
"  ####]^>>/(##################  ",
"  #####_:>><[#################  ",
"  #####}|1>23#################  ",
"  ####}456789#################  ",
"  ###0a55bc##deeeeeefg########  ",
"  ###h55ij###k>>>>>>>l########  ",
"  ###m5no####>>>>>>>>p########  ",
"  ###qrs#####tuuuuuuvw########  ",
"  ############################  ",
"  ############################  ",
"  ############################  ",
"  ############################  ",
"  ############################  ",
"  ############################  ",
"  ############################  ",
"  ############################  ",
"  ############################  ",
"  x##########################x  ",
"   zyyyyyyyyyyyyyyyyyyyyyyyyz   ",
"                                ",
"                                ",
"                                "};
