/* XPM */
static char * xterm_mod_48x48_xpm[] = {
"48 48 89 1",
" 	c None",
".	c #6E6E6E",
"+	c #696969",
"@	c #606060",
"#	c #525252",
"$	c #4F4F4F",
"%	c #5D5D5D",
"&	c #506451",
"*	c #516C51",
"=	c #527D53",
"-	c #52CA57",
";	c #4FCD54",
">	c #549156",
",	c #527953",
"'	c #4ECB53",
")	c #33C839",
"!	c #47CC4C",
"~	c #549657",
"{	c #4B914D",
"]	c #549757",
"^	c #4B4B4B",
"/	c #38A33C",
"(	c #44CC4A",
"_	c #549B57",
":	c #494949",
"<	c #39A03C",
"[	c #41CB47",
"}	c #55A658",
"|	c #4A4A4A",
"1	c #3A963D",
"2	c #40CB45",
"3	c #56AD59",
"4	c #3B8D3D",
"5	c #4C4C4C",
"6	c #3B8C3D",
"7	c #3ECA44",
"8	c #53A756",
"9	c #3F6645",
"0	c #279934",
"a	c #33C739",
"b	c #3E9F41",
"c	c #416B47",
"d	c #24873B",
"e	c #238339",
"f	c #269434",
"g	c #32C639",
"h	c #33A236",
"i	c #464646",
"j	c #3D6F46",
"k	c #23843A",
"l	c #248933",
"m	c #2F8A34",
"n	c #454545",
"o	c #3A7444",
"p	c #336B3D",
"q	c #527853",
"r	c #517052",
"s	c #3A7544",
"t	c #36673E",
"u	c #539455",
"v	c #4CCE51",
"w	c #4BCE50",
"x	c #4FCF54",
"y	c #516F52",
"z	c #426A48",
"A	c #37643E",
"B	c #449C47",
"C	c #4B754B",
"D	c #455B48",
"E	c #25853B",
"F	c #439B45",
"G	c #4A744B",
"H	c #4E4E4E",
"I	c #3D5841",
"J	c #26843B",
"K	c #25863B",
"L	c #39613F",
"M	c #448D46",
"N	c #4B6A4C",
"O	c #414D43",
"P	c #3F4E41",
"Q	c #4D4D4D",
"R	c #3D6C3E",
"S	c #3D6D3E",
"T	c #3F6440",
"U	c #3C3C3C",
"V	c #353535",
"W	c #444444",
"X	c #252525",
"                                                ",
"                                                ",
"                                                ",
"                                                ",
"                                                ",
"    ..++++++++++++++++++++++++++++++++++++..    ",
"   .@#$$$$$$$$$$$$$$$$$$$$$$$$$$$$$$$$$$$$#@.   ",
"   %$$$$$$$$$$$$$$$$$$$$$$$$$$$$$$$$$$$$$$$$%   ",
"   #$$$$$$$$$$$$$$$$$$$$$$$$$$$$$$$$$$$$$$$$#   ",
"   $$$$$$&*$$$$$$$$$$$$$$$$$$$$$$$$$$$$$$$$$$   ",
"   $$$$$=-;>$$$$$$$$$$$$$$$$$$$$$$$$$$$$$$$$$   ",
"   $$$$,'))!~$$$$$$$$$$$$$$$$$$$$$$$$$$$$$$$$   ",
"   $$$${))))!]$$$$$$$$$$$$$$$$$$$$$$$$$$$$$$$   ",
"   $$$$^/))))(_$$$$$$$$$$$$$$$$$$$$$$$$$$$$$$   ",
"   $$$$$:<))))[}$$$$$$$$$$$$$$$$$$$$$$$$$$$$$   ",
"   $$$$$$|1))))23$$$$$$$$$$$$$$$$$$$$$$$$$$$$   ",
"   $$$$$$$^4))))23$$$$$$$$$$$$$$$$$$$$$$$$$$$   ",
"   $$$$$$$$56))))78$$$$$$$$$$$$$$$$$$$$$$$$$$   ",
"   $$$$$$$$$90a)))b$$$$$$$$$$$$$$$$$$$$$$$$$$   ",
"   $$$$$$$$cdefg)hi$$$$$$$$$$$$$$$$$$$$$$$$$$   ",
"   $$$$$$$jdddklmn$$$$$$$$$$$$$$$$$$$$$$$$$$$   ",
"   $$$$$$odddddp:$$$q,,,,,,,,,,r$$$$$$$$$$$$$   ",
"   $$$$$sdddddt^$$$uvwwwwwwwwwwxy$$$$$$$$$$$$   ",
"   $$$$zdddddA^$$$$B))))))))))))C$$$$$$$$$$$$   ",
"   $$$$DEdddA5$$$$$F))))))))))))G$$$$$$$$$$$$   ",
"   $$$$HIJKL5$$$$$$M))))))))))))N$$$$$$$$$$$$   ",
"   $$$$$HOPQ$$$$$$$^RSSSSSSSSSSTH$$$$$$$$$$$$   ",
"   $$$$$$$$$$$$$$$$$$$$$$$$$$$$$$$$$$$$$$$$$$   ",
"   $$$$$$$$$$$$$$$$$$$$$$$$$$$$$$$$$$$$$$$$$$   ",
"   $$$$$$$$$$$$$$$$$$$$$$$$$$$$$$$$$$$$$$$$$$   ",
"   $$$$$$$$$$$$$$$$$$$$$$$$$$$$$$$$$$$$$$$$$$   ",
"   $$$$$$$$$$$$$$$$$$$$$$$$$$$$$$$$$$$$$$$$$$   ",
"   $$$$$$$$$$$$$$$$$$$$$$$$$$$$$$$$$$$$$$$$$$   ",
"   $$$$$$$$$$$$$$$$$$$$$$$$$$$$$$$$$$$$$$$$$$   ",
"   $$$$$$$$$$$$$$$$$$$$$$$$$$$$$$$$$$$$$$$$$$   ",
"   $$$$$$$$$$$$$$$$$$$$$$$$$$$$$$$$$$$$$$$$$$   ",
"   $$$$$$$$$$$$$$$$$$$$$$$$$$$$$$$$$$$$$$$$$$   ",
"   $$$$$$$$$$$$$$$$$$$$$$$$$$$$$$$$$$$$$$$$$$   ",
"   $$$$$$$$$$$$$$$$$$$$$$$$$$$$$$$$$$$$$$$$$$   ",
"   $$$$$$$$$$$$$$$$$$$$$$$$$$$$$$$$$$$$$$$$$$   ",
"   ^$$$$$$$$$$$$$$$$$$$$$$$$$$$$$$$$$$$$$$$$^   ",
"   U$$$$$$$$$$$$$$$$$$$$$$$$$$$$$$$$$$$$$$$$U   ",
"    VW::::::::::::::::::::::::::::::::::::WV    ",
"     XXXXXXXXXXXXXXXXXXXXXXXXXXXXXXXXXXXXXX     ",
"                                                ",
"                                                ",
"                                                ",
"                                                "};
